<?xml version="1.0" encoding="UTF-8"?>
<svg id="Layer_1" data-name="Layer 1" xmlns="http://www.w3.org/2000/svg" viewBox="0 0 64.49 62.78">
  <path d="M61.55,55.84c-2.26-.93-4.38-1.79-6.49-2.65-3.98-1.63-7.97-3.26-11.95-4.89-4.02-1.65-8.04-3.3-12.06-4.94-4.38-1.79-8.75-3.57-13.13-5.36-.34-.14-.49-.36-.5-.74-.03-1.07-.17-2.15-.13-3.22,.03-.69,.27-1.38,.47-2.05,1.76-6.04,5-11.15,9.74-15.3,3.33-2.92,7.11-5.04,11.34-6.36,1.68-.52,1.31-.42,1.95,.87,3.7,7.39,7.37,14.8,11.04,22.21,3.07,6.17,6.1,12.35,9.22,18.5,.66,1.3,.4,2.57,.48,3.94Zm-15.41-28.5c0-2.12-1.64-3.83-3.66-3.84-2,0-3.68,1.76-3.66,3.85,.02,2.12,1.66,3.79,3.71,3.78,2.01,0,3.61-1.69,3.61-3.79Zm-17.16,4.86c1.81,0,3.28-1.49,3.3-3.34,.02-1.87-1.47-3.42-3.3-3.42-1.82,0-3.29,1.49-3.29,3.35,0,1.89,1.46,3.41,3.29,3.41Zm6.53-10.36c0-1.1-.74-1.94-1.72-1.96-.98-.01-1.74,.82-1.74,1.93,0,1.11,.78,2.01,1.76,2,.96,0,1.71-.88,1.71-1.97Zm14.12,22.6c.97,0,1.74-.87,1.72-1.95-.02-1.06-.81-1.97-1.74-1.98-.93-.02-1.74,.89-1.75,1.96,0,1.12,.77,1.98,1.77,1.98Z"/>
  <path d="M39.05,7.4c-1.11,.38-2.17,.71-3.21,1.09-5.47,2.01-10.09,5.26-13.89,9.67-2.98,3.46-5.11,7.4-6.58,11.72-.61,1.79-.74,3.59-.59,5.44,.03,.36,0,.72,0,1.13-.2-.02-.34,0-.46-.05-1.34-.52-2.68-1.03-4-1.59-.2-.09-.42-.41-.43-.63-.09-1.23-.24-2.48-.13-3.7,.09-1.01,.48-2,.82-2.97,1.82-5.27,4.62-9.96,8.43-14.04,3.98-4.27,8.7-7.47,14.11-9.65,.99-.4,2-.76,3.02-1.08,.22-.07,.66,.05,.75,.21,.73,1.35,1.39,2.74,2.08,4.11,.04,.09,.05,.19,.08,.35Z"/>
</svg>